<?xml version="1.0" encoding="utf-8"?>
<!-- Generator: Adobe Illustrator 25.0.0, SVG Export Plug-In . SVG Version: 6.00 Build 0)  -->
<svg version="1.1" id="katman_1" xmlns="http://www.w3.org/2000/svg" xmlns:xlink="http://www.w3.org/1999/xlink" x="0px" y="0px"
	 viewBox="0 0 1000 1000" style="enable-background:new 0 0 1000 1000;" xml:space="preserve">
<style type="text/css">
	.st0{fill-rule:evenodd;clip-rule:evenodd;fill:#414898;}
</style>
<g>
	<path class="st0" d="M383.1,565.8l-39.7-47.5v47.5h-21.2v-143h21.2v88.5l36.8-45.3h27.2l-41.6,47.5l44.7,52.3H383.1L383.1,565.8z
		 M458.6,521.1c-5.4,0-22.4,1-22.4,15.2c0,2.9,1.2,11.9,17.9,11.9c2.5,0,24.1-0.4,31.9-13.4v-0.2v-8l-0.2-0.2
		C475.9,522.9,464.8,521.1,458.6,521.1z M453.3,567.8c-23.5,0-38.1-11.9-38.1-31.5c0-20.4,15.6-31.9,42.8-31.9
		c9.1,0,18.3,2.3,27.4,6.6l0.6,0.2v-5.4c0-14-10.1-23.3-25.7-23.3c-10.7,0-22.2,5.6-28.4,13.6l-12.1-13c12.3-17.3,31.7-19.8,42-19.8
		c29.2,0,45.5,15,45.5,42.2v59.7H486v-11.7l-0.6,1.2C476.5,566.2,461.5,567.8,453.3,567.8z M531.5,565.8v-143h21.4v143H531.5z
		 M623.7,482.2c-16.3,0-28,9.9-30.3,25.1v0.4h59.5v-0.2C650.4,491.9,639.5,482.2,623.7,482.2z M623.7,567.8
		c-29.6,0-51.4-22-51.4-52.5c0-15.2,5.4-28.2,15-37.9c9.3-8.8,22.2-14,36.4-14c29.4,0,50,21.4,50,51.9c0,2.3,0,5.8-0.2,7.8h-80.1
		v0.4c2.3,15.6,14.4,25.5,31.3,25.5c11.7,0,22.6-5.8,27.6-14.2c3.3,1.6,7.2,3.3,10.7,4.7c2.3,1,4.5,2.1,6.8,2.9
		C661.6,558.5,644.5,567.8,623.7,567.8z M692,565.8v-100h21.2v99.8L692,565.8L692,565.8z M784.2,484.5c-17.7,0-30.7,13-30.7,31.1
		c0,18.3,12.8,31.7,30.7,31.7c15.4,0,31.3-10.9,31.3-31.7C815.5,495.4,799.4,484.5,784.2,484.5z M781.3,567.8
		c-28.4,0-49.8-22.4-49.8-52.1c0-30.3,21-52.3,49.8-52.3c15,0,28,6.4,33.8,16.5l0.8,1.4v-58.9h21.2v143h-21.2v-15.8l-0.8,1.4
		C809.3,561.4,795.9,567.8,781.3,567.8z M909.1,484.7c-17.9,0-30.9,13-30.9,30.9c0,18.3,13,31.7,30.9,31.7
		c18.1,0,31.1-13.4,31.1-31.7C940.2,497.4,927.2,484.7,909.1,484.7z M909.1,567.8c-14,0-27-5.1-36.6-14.2
		c-9.9-9.5-15.4-23.3-15.4-38.1c0-30,22-51.9,52.1-51.9c30.3,0,52.5,21.8,52.5,51.9c0,15-5.6,28.4-15.4,38.1
		C936.3,562.7,923.3,567.8,909.1,567.8z M702.5,446.8c-8,0-14.4-6.2-14.4-13.6c0-7.6,6.6-13.6,14.4-13.6c8,0,14.2,6,14.2,13.6
		C716.7,441,710.7,446.8,702.5,446.8z"/>
	<path class="st0" d="M240.5,459.4v26.1l-76.1-43.6l33.8-19.6l31.3,18.1C236.2,444.3,240.5,451.7,240.5,459.4z M55.7,514.5
		l75.9,43.8l-33.8,19.6l-31.3-18.1c-6.8-3.9-10.9-11.1-10.9-18.9V514.5z M105.9,524.6v-39.7l76.4,44l-34.2,19.8L105.9,524.6z
		 M148.1,451.3l42.2,24.5v39.5l-76.4-44L148.1,451.3z M148.1,397c3.9,0,7.8,1,10.9,2.9l22.8,13.2l-75.9,43.8V418l31.5-18.1
		C140.5,398,144.4,397,148.1,397z M66.6,440.4l22.8-13.2v87.9l-33.8-19.3v-36.4C55.7,451.7,60,444.3,66.6,440.4z M190.5,582.2
		L159,600.3c-3.3,1.9-7.2,2.9-10.9,2.9c-3.9,0-7.8-1-10.9-2.9l-22.8-13.2l75.9-43.8L190.5,582.2z M229.6,559.8l-22.8,13v-87.9
		l33.8,19.3v36.4C240.5,548.7,236.2,555.9,229.6,559.8z M238,425.6l-70.4-40.7c-6-3.5-12.8-5.4-19.6-5.4c-7,0-13.6,1.9-19.6,5.4
		l-70.4,40.7c-12.1,7-19.8,20-19.8,33.8v81.3c0,13.8,7.6,26.8,19.6,33.8l70.4,40.7c6,3.5,12.6,5.4,19.6,5.4c7,0,13.6-1.9,19.6-5.4
		l70.4-40.7c11.9-7,19.6-20,19.6-33.8v-81.3C257.6,445.6,250.2,432.6,238,425.6z"/>
</g>
</svg>
