<?xml version="1.0" encoding="UTF-8"?>
<svg width="100px" height="100px" viewBox="0 0 100 100" version="1.1" xmlns="http://www.w3.org/2000/svg" xmlns:xlink="http://www.w3.org/1999/xlink">
    <!-- Generator: Sketch 52.2 (67145) - http://www.bohemiancoding.com/sketch -->
    <title>feature-templates</title>
    <desc>Created with Sketch.</desc>
    <defs>
        <linearGradient x1="66.8104845%" y1="0%" x2="66.8104845%" y2="120.216922%" id="linearGradient-1">
            <stop stop-color="#931FFF" offset="0%"></stop>
            <stop stop-color="#2D0DAE" offset="100%"></stop>
        </linearGradient>
        <linearGradient x1="66.8104845%" y1="-475.498047%" x2="66.8104845%" y2="100%" id="linearGradient-2">
            <stop stop-color="#931FFF" offset="0%"></stop>
            <stop stop-color="#2D0DAE" offset="100%"></stop>
        </linearGradient>
    </defs>
    <g id="feature-templates" stroke="none" stroke-width="1" fill="none" fill-rule="evenodd" stroke-linecap="round" stroke-linejoin="round">
        <rect id="Rectangle" stroke="url(#linearGradient-1)" stroke-width="3.5" x="10" y="21" width="81" height="47"></rect>
        <rect id="Rectangle" stroke="url(#linearGradient-2)" stroke-width="3.5" fill="#E4C8FF" x="10" y="68" width="81" height="10"></rect>
        <path d="M31.1944444,40 L21.8055556,40 C20.7222222,40 20,39.3076923 20,38.2692308 L20,32.7307692 C20,31.6923077 20.7222222,31 21.8055556,31 L31.1944444,31 C32.2777778,31 33,31.6923077 33,32.7307692 L33,38.2692308 C33,39.1346154 32.0972222,40 31.1944444,40 Z" id="Path" stroke="#781AE9" stroke-width="3.5" fill="#E4C8FF"></path>
        <path d="M55.1944444,40 L45.8055556,40 C44.7222222,40 44,39.3076923 44,38.2692308 L44,32.7307692 C44,31.6923077 44.7222222,31 45.8055556,31 L55.1944444,31 C56.2777778,31 57,31.6923077 57,32.7307692 L57,38.2692308 C57,39.1346154 56.2777778,40 55.1944444,40 Z" id="Path" stroke="#781AE9" stroke-width="3.5" fill="#E4C8FF"></path>
        <path d="M79.1944444,40 L69.8055556,40 C68.7222222,40 68,39.3076923 68,38.2692308 L68,32.7307692 C68,31.6923077 68.7222222,31 69.8055556,31 L79.1944444,31 C80.2777778,31 81,31.6923077 81,32.7307692 L81,38.2692308 C81,39.1346154 80.2777778,40 79.1944444,40 Z" id="Path" stroke="#781AE9" stroke-width="3.5" fill="#E4C8FF"></path>
        <path d="M31.1944444,58 L21.8055556,58 C20.7222222,58 20,57.3076923 20,56.2692308 L20,50.7307692 C20,49.6923077 20.7222222,49 21.8055556,49 L31.1944444,49 C32.2777778,49 33,49.6923077 33,50.7307692 L33,56.2692308 C33,57.3076923 32.0972222,58 31.1944444,58 Z" id="Path" stroke="#5814D0" stroke-width="3.5" fill="#E4C8FF"></path>
        <path d="M55.1944444,58 L45.8055556,58 C44.7222222,58 44,57.3076923 44,56.2692308 L44,50.7307692 C44,49.6923077 44.7222222,49 45.8055556,49 L55.1944444,49 C56.2777778,49 57,49.6923077 57,50.7307692 L57,56.2692308 C57,57.3076923 56.2777778,58 55.1944444,58 Z" id="Path" stroke="#5814D0" stroke-width="3.5" fill="#E4C8FF"></path>
        <path d="M79.1944444,58 L69.8055556,58 C68.7222222,58 68,57.3076923 68,56.2692308 L68,50.7307692 C68,49.6923077 68.7222222,49 69.8055556,49 L79.1944444,49 C80.2777778,49 81,49.6923077 81,50.7307692 L81,56.2692308 C81,57.3076923 80.2777778,58 79.1944444,58 Z" id="Path" stroke="#5814D0" stroke-width="3.5" fill="#E4C8FF"></path>
    </g>
</svg>