<?xml version="1.0" encoding="UTF-8"?>
<svg width="100px" height="100px" viewBox="0 0 100 100" version="1.1" xmlns="http://www.w3.org/2000/svg" xmlns:xlink="http://www.w3.org/1999/xlink">
    <!-- Generator: Sketch 52.2 (67145) - http://www.bohemiancoding.com/sketch -->
    <title>feature-team</title>
    <desc>Created with Sketch.</desc>
    <defs>
        <linearGradient x1="66.8104845%" y1="-68.3165187%" x2="66.8104845%" y2="372.385412%" id="linearGradient-1">
            <stop stop-color="#931FFF" offset="0%"></stop>
            <stop stop-color="#2D0DAE" offset="100%"></stop>
        </linearGradient>
        <linearGradient x1="66.8104845%" y1="0%" x2="66.8104845%" y2="443.09205%" id="linearGradient-2">
            <stop stop-color="#931FFF" offset="0%"></stop>
            <stop stop-color="#2D0DAE" offset="100%"></stop>
        </linearGradient>
        <linearGradient x1="66.8104845%" y1="-243.413949%" x2="66.8104845%" y2="100%" id="linearGradient-3">
            <stop stop-color="#931FFF" offset="0%"></stop>
            <stop stop-color="#2D0DAE" offset="100%"></stop>
        </linearGradient>
        <linearGradient x1="66.8104845%" y1="-84.2264282%" x2="66.8104845%" y2="164.838655%" id="linearGradient-4">
            <stop stop-color="#931FFF" offset="0%"></stop>
            <stop stop-color="#2D0DAE" offset="100%"></stop>
        </linearGradient>
    </defs>
    <g id="feature-team" stroke="none" stroke-width="1" fill="none" fill-rule="evenodd">
        <g id="Group" transform="translate(16.000000, 8.000000)">
            <circle id="Oval" fill="#E4C8FF" cx="23.5" cy="10.5" r="7.5"></circle>
            <circle id="Oval-Copy" fill="#E4C8FF" cx="45.5" cy="10.5" r="7.5"></circle>
            <rect id="Rectangle" fill="#E4C8FF" x="24" y="31" width="21" height="31" rx="9"></rect>
            <rect id="Rectangle" fill="#E4C8FF" x="28" y="59" width="13" height="21"></rect>
            <path d="M13.1184211,32.6458333 C7.99575552,32.6458333 3.84210526,28.4975083 3.84210526,23.3791667 C3.84210526,18.2608251 7.99575552,14.1125 13.1184211,14.1125 C18.2410866,14.1125 22.3947368,18.2608251 22.3947368,23.3791667 C22.3947368,28.4975083 18.2410866,32.6458333 13.1184211,32.6458333 Z M13.1184211,29.1458333 C16.3090944,29.1458333 18.8947368,26.5635058 18.8947368,23.3791667 C18.8947368,20.1948275 16.3090944,17.6125 13.1184211,17.6125 C9.92774772,17.6125 7.34210526,20.1948275 7.34210526,23.3791667 C7.34210526,26.5635058 9.92774772,29.1458333 13.1184211,29.1458333 Z" id="Oval" fill="url(#linearGradient-1)" fill-rule="nonzero"></path>
            <path d="M23.8947368,19.3208333 C18.7720713,19.3208333 14.6184211,15.1725083 14.6184211,10.0541667 C14.6184211,4.93582506 18.7720713,0.7875 23.8947368,0.7875 C29.0174024,0.7875 33.1710526,4.93582506 33.1710526,10.0541667 C33.1710526,15.1725083 29.0174024,19.3208333 23.8947368,19.3208333 Z M23.8947368,15.8208333 C27.0854102,15.8208333 29.6710526,13.2385058 29.6710526,10.0541667 C29.6710526,6.86982753 27.0854102,4.2875 23.8947368,4.2875 C20.7040635,4.2875 18.1184211,6.86982753 18.1184211,10.0541667 C18.1184211,13.2385058 20.7040635,15.8208333 23.8947368,15.8208333 Z" id="Oval" fill="url(#linearGradient-2)" fill-rule="nonzero"></path>
            <path d="M45.1052632,19.3208333 C39.9825976,19.3208333 35.8289474,15.1725083 35.8289474,10.0541667 C35.8289474,4.93582506 39.9825976,0.7875 45.1052632,0.7875 C50.2279287,0.7875 54.3815789,4.93582506 54.3815789,10.0541667 C54.3815789,15.1725083 50.2279287,19.3208333 45.1052632,19.3208333 Z M45.1052632,15.8208333 C48.2959365,15.8208333 50.8815789,13.2385058 50.8815789,10.0541667 C50.8815789,6.86982753 48.2959365,4.2875 45.1052632,4.2875 C41.9145898,4.2875 39.3289474,6.86982753 39.3289474,10.0541667 C39.3289474,13.2385058 41.9145898,15.8208333 45.1052632,15.8208333 Z" id="Oval" fill="url(#linearGradient-2)" fill-rule="nonzero"></path>
            <path d="M11.3684211,62.5 C11.3684211,61.5335017 12.1519227,60.75 13.1184211,60.75 C14.0849194,60.75 14.8684211,61.5335017 14.8684211,62.5 L14.8684211,78.0458333 C14.8684211,80.8485861 12.5911958,83.0416667 9.86842105,83.0416667 C7.06437449,83.0416667 4.86842105,80.7673012 4.86842105,78.0458333 L4.86842105,60.9625 C4.86842105,59.9960017 5.65192274,59.2125 6.61842105,59.2125 C7.58491936,59.2125 8.36842105,59.9960017 8.36842105,60.9625 L8.36842105,78.0458333 C8.36842105,78.8612482 9.02538115,79.5416667 9.86842105,79.5416667 C10.6870693,79.5416667 11.3684211,78.8854912 11.3684211,78.0458333 L11.3684211,62.5 Z" id="Path" fill="url(#linearGradient-3)" fill-rule="nonzero"></path>
            <path d="M18.0394737,61.1333333 C18.0394737,60.166835 18.8229754,59.3833333 19.7894737,59.3833333 C20.755972,59.3833333 21.5394737,60.166835 21.5394737,61.1333333 L21.5394737,78.2166667 C21.5394737,81.0194195 19.2622484,83.2125 16.5394737,83.2125 C13.7354271,83.2125 11.5394737,80.9381345 11.5394737,78.2166667 L11.5394737,62.5 C11.5394737,61.5335017 12.3229754,60.75 13.2894737,60.75 C14.255972,60.75 15.0394737,61.5335017 15.0394737,62.5 L15.0394737,78.2166667 C15.0394737,79.0320815 15.6964338,79.7125 16.5394737,79.7125 C17.3581219,79.7125 18.0394737,79.0563246 18.0394737,78.2166667 L18.0394737,61.1333333 Z" id="Path" fill="url(#linearGradient-3)" fill-rule="nonzero"></path>
            <path d="M7.69875109,58.9024361 C8.45909838,59.4990859 8.59180141,60.5991494 7.9951516,61.3594967 C7.39850179,62.119844 6.2984383,62.252547 5.53809101,61.6558972 C2.59523615,59.3466185 0.763157895,55.9024219 0.763157895,52.25 L0.763157895,39.2666667 C0.763157895,33.6871654 5.31031969,29.1458333 10.8947368,29.1458333 L15.5131579,29.1458333 C21.097575,29.1458333 25.6447368,33.6871654 25.6447368,39.2666667 L25.6447368,52.25 C25.6447368,56.0911549 23.8067236,59.7068425 20.7593369,61.735829 C19.9548445,62.2714697 18.868452,62.0535223 18.3328113,61.2490299 C17.7971706,60.4445375 18.015118,59.358145 18.8196104,58.8225043 C20.868001,57.4586614 22.1447368,54.9471027 22.1447368,52.25 L22.1447368,39.2666667 C22.1447368,35.6211679 19.1655828,32.6458333 15.5131579,32.6458333 L10.8947368,32.6458333 C7.24231189,32.6458333 4.26315789,35.6211679 4.26315789,39.2666667 L4.26315789,52.25 C4.26315789,54.7777251 5.56769992,57.2301854 7.69875109,58.9024361 Z" id="Path" fill="url(#linearGradient-4)" fill-rule="nonzero"></path>
            <path d="M34.5,32.6458333 C29.3773345,32.6458333 25.2236842,28.4975083 25.2236842,23.3791667 C25.2236842,18.2608251 29.3773345,14.1125 34.5,14.1125 C39.6226655,14.1125 43.7763158,18.2608251 43.7763158,23.3791667 C43.7763158,28.4975083 39.6226655,32.6458333 34.5,32.6458333 Z M34.5,29.1458333 C37.6906733,29.1458333 40.2763158,26.5635058 40.2763158,23.3791667 C40.2763158,20.1948275 37.6906733,17.6125 34.5,17.6125 C31.3093267,17.6125 28.7236842,20.1948275 28.7236842,23.3791667 C28.7236842,26.5635058 31.3093267,29.1458333 34.5,29.1458333 Z" id="Oval" fill="url(#linearGradient-1)" fill-rule="nonzero"></path>
            <path d="M32.75,62.5 C32.75,61.5335017 33.5335017,60.75 34.5,60.75 C35.4664983,60.75 36.25,61.5335017 36.25,62.5 L36.25,78.0458333 C36.25,80.8485861 33.9727747,83.0416667 31.25,83.0416667 C28.4459534,83.0416667 26.25,80.7673012 26.25,78.0458333 L26.25,60.9625 C26.25,59.9960017 27.0335017,59.2125 28,59.2125 C28.9664983,59.2125 29.75,59.9960017 29.75,60.9625 L29.75,78.0458333 C29.75,78.8612482 30.4069601,79.5416667 31.25,79.5416667 C32.0686483,79.5416667 32.75,78.8854912 32.75,78.0458333 L32.75,62.5 Z" id="Path" fill="url(#linearGradient-3)" fill-rule="nonzero"></path>
            <path d="M39.4210526,61.1333333 C39.4210526,60.166835 40.2045543,59.3833333 41.1710526,59.3833333 C42.1375509,59.3833333 42.9210526,60.166835 42.9210526,61.1333333 L42.9210526,78.2166667 C42.9210526,81.0194195 40.6438274,83.2125 37.9210526,83.2125 C35.1170061,83.2125 32.9210526,80.9381345 32.9210526,78.2166667 L32.9210526,62.5 C32.9210526,61.5335017 33.7045543,60.75 34.6710526,60.75 C35.6375509,60.75 36.4210526,61.5335017 36.4210526,62.5 L36.4210526,78.2166667 C36.4210526,79.0320815 37.0780127,79.7125 37.9210526,79.7125 C38.7397009,79.7125 39.4210526,79.0563246 39.4210526,78.2166667 L39.4210526,61.1333333 Z" id="Path" fill="url(#linearGradient-3)" fill-rule="nonzero"></path>
            <path d="M28.9092774,58.9024361 C29.6696247,59.4990859 29.8023277,60.5991494 29.2056779,61.3594967 C28.6090281,62.119844 27.5089646,62.252547 26.7486173,61.6558972 C23.8057625,59.3466185 21.9736842,55.9024219 21.9736842,52.25 L21.9736842,39.2666667 C21.9736842,33.6871654 26.520846,29.1458333 32.1052632,29.1458333 L36.7236842,29.1458333 C42.3081014,29.1458333 46.8552632,33.6871654 46.8552632,39.2666667 L46.8552632,52.25 C46.8552632,56.0911549 45.01725,59.7068425 41.9698632,61.735829 C41.1653708,62.2714697 40.0789783,62.0535223 39.5433376,61.2490299 C39.0076969,60.4445375 39.2256443,59.358145 40.0301368,58.8225043 C42.0785273,57.4586614 43.3552632,54.9471027 43.3552632,52.25 L43.3552632,39.2666667 C43.3552632,35.6211679 40.3761092,32.6458333 36.7236842,32.6458333 L32.1052632,32.6458333 C28.4528382,32.6458333 25.4736842,35.6211679 25.4736842,39.2666667 L25.4736842,52.25 C25.4736842,54.7777251 26.7782262,57.2301854 28.9092774,58.9024361 Z" id="Path" fill="url(#linearGradient-4)" fill-rule="nonzero"></path>
            <path d="M55.8815789,32.6458333 C50.7589134,32.6458333 46.6052632,28.4975083 46.6052632,23.3791667 C46.6052632,18.2608251 50.7589134,14.1125 55.8815789,14.1125 C61.0042445,14.1125 65.1578947,18.2608251 65.1578947,23.3791667 C65.1578947,28.4975083 61.0042445,32.6458333 55.8815789,32.6458333 Z M55.8815789,29.1458333 C59.0722523,29.1458333 61.6578947,26.5635058 61.6578947,23.3791667 C61.6578947,20.1948275 59.0722523,17.6125 55.8815789,17.6125 C52.6909056,17.6125 50.1052632,20.1948275 50.1052632,23.3791667 C50.1052632,26.5635058 52.6909056,29.1458333 55.8815789,29.1458333 Z" id="Oval" fill="url(#linearGradient-1)" fill-rule="nonzero"></path>
            <path d="M54.1315789,62.5 C54.1315789,61.5335017 54.9150806,60.75 55.8815789,60.75 C56.8480773,60.75 57.6315789,61.5335017 57.6315789,62.5 L57.6315789,78.0458333 C57.6315789,80.8485861 55.3543537,83.0416667 52.6315789,83.0416667 C49.8275324,83.0416667 47.6315789,80.7673012 47.6315789,78.0458333 L47.6315789,60.9625 C47.6315789,59.9960017 48.4150806,59.2125 49.3815789,59.2125 C50.3480773,59.2125 51.1315789,59.9960017 51.1315789,60.9625 L51.1315789,78.0458333 C51.1315789,78.8612482 51.788539,79.5416667 52.6315789,79.5416667 C53.4502272,79.5416667 54.1315789,78.8854912 54.1315789,78.0458333 L54.1315789,62.5 Z" id="Path" fill="url(#linearGradient-3)" fill-rule="nonzero"></path>
            <path d="M60.6315789,61.1333333 C60.6315789,60.166835 61.4150806,59.3833333 62.3815789,59.3833333 C63.3480773,59.3833333 64.1315789,60.166835 64.1315789,61.1333333 L64.1315789,78.2166667 C64.1315789,81.0194195 61.8543537,83.2125 59.1315789,83.2125 C56.3275324,83.2125 54.1315789,80.9381345 54.1315789,78.2166667 L54.1315789,62.5 C54.1315789,61.5335017 54.9150806,60.75 55.8815789,60.75 C56.8480773,60.75 57.6315789,61.5335017 57.6315789,62.5 L57.6315789,78.2166667 C57.6315789,79.0320815 58.288539,79.7125 59.1315789,79.7125 C59.9502272,79.7125 60.6315789,79.0563246 60.6315789,78.2166667 L60.6315789,61.1333333 Z" id="Path" fill="url(#linearGradient-3)" fill-rule="nonzero"></path>
            <path d="M50.2908564,58.9024361 C51.0512036,59.4990859 51.1839067,60.5991494 50.5872569,61.3594967 C49.9906071,62.119844 48.8905436,62.252547 48.1301963,61.6558972 C45.1873414,59.3466185 43.3552632,55.9024219 43.3552632,52.25 L43.3552632,39.2666667 C43.3552632,33.6871654 47.902425,29.1458333 53.4868421,29.1458333 L58.1052632,29.1458333 C63.6896803,29.1458333 68.2368421,33.6871654 68.2368421,39.2666667 L68.2368421,52.25 C68.2368421,56.0911549 66.3988289,59.7068425 63.3514422,61.735829 C62.5469498,62.2714697 61.4605572,62.0535223 60.9249166,61.2490299 C60.3892759,60.4445375 60.6072233,59.358145 61.4117157,58.8225043 C63.4601062,57.4586614 64.7368421,54.9471027 64.7368421,52.25 L64.7368421,39.2666667 C64.7368421,35.6211679 61.7576881,32.6458333 58.1052632,32.6458333 L53.4868421,32.6458333 C49.8344172,32.6458333 46.8552632,35.6211679 46.8552632,39.2666667 L46.8552632,52.25 C46.8552632,54.7777251 48.1598052,57.2301854 50.2908564,58.9024361 Z" id="Path" fill="url(#linearGradient-4)" fill-rule="nonzero"></path>
        </g>
    </g>
</svg>