<?xml version="1.0" encoding="UTF-8"?>
<svg width="100px" height="100px" viewBox="0 0 100 100" version="1.1" xmlns="http://www.w3.org/2000/svg" xmlns:xlink="http://www.w3.org/1999/xlink">
    <!-- Generator: Sketch 52.2 (67145) - http://www.bohemiancoding.com/sketch -->
    <title>feature-themeing</title>
    <desc>Created with Sketch.</desc>
    <defs>
        <linearGradient x1="66.8104845%" y1="0%" x2="66.8104845%" y2="100%" id="linearGradient-1">
            <stop stop-color="#931FFF" offset="0%"></stop>
            <stop stop-color="#2D0DAE" offset="100%"></stop>
        </linearGradient>
    </defs>
    <g id="feature-themeing" stroke="none" stroke-width="1" fill="none" fill-rule="evenodd">
        <g id="Group" transform="translate(4.000000, 8.000000)">
            <polygon id="Path-3" fill="#E4C8FF" points="3.38411458 76.7325814 11.356143 66.8914616 17.8682106 65.6923926 19.5466309 71.6599089 29.0906576 71.212487 34.4975935 76.7325814 29.0906576 80.5985334 17.3227307 80.5985334 4.12318638 77.5666341"></polygon>
            <polygon id="Path-4" fill="#E4C8FF" points="33.6245582 36.9153178 55.1501581 59.1618018 39.6692243 63.0254232 38.1835938 58.2432684 33.6245582 53.6388851 29.2516276 51.7246377"></polygon>
            <path d="M34.4521959,79.0297544 C31.066522,81.2652114 26.8399943,82.3449981 21.9838091,82.4590908 C17.5200888,82.5639629 12.784567,81.8535012 8.07660117,80.6076704 C6.54467287,80.2022886 5.1256656,79.7677616 3.85267276,79.3323135 C3.08125955,79.0684389 2.52388966,78.8603844 2.21408463,78.7362452 C0.758107599,78.1528334 0.571815267,76.1468582 1.89495926,75.2999386 C1.94638459,75.2670222 2.07658818,75.1771179 2.27433244,75.0291852 C2.62417181,74.7674699 3.01948458,74.445458 3.44911671,74.0621712 C4.69481549,72.9508487 5.94698635,71.5812678 7.11845745,69.9456352 C7.6285729,69.2334012 8.11264918,68.4843178 8.55996111,67.7095393 C9.22312405,66.5422244 9.80382606,65.1248417 10.767938,62.4599688 C10.8357977,62.2724 10.9115621,62.0624061 11.0554646,61.6634664 C11.1727251,61.3386108 11.2591909,61.0999538 11.3444987,60.866132 C12.6508233,57.2856019 13.4885716,55.4949869 14.7112948,54.2651207 C18.3824762,50.5724926 23.3572072,49.0579405 28.0977049,49.7214644 L31.3606199,36.2653602 C31.4443695,35.9199807 31.6206114,35.604567 31.8700249,35.3536964 L32.417644,34.8028782 L32.5792282,34.6577352 L71.9957699,3.08720772 C76.6050028,-0.66587381 83.3623782,-0.39933062 87.4756691,3.7388873 C91.8486871,7.91752383 92.1238688,14.7646781 88.1819762,19.4184 L56.6230103,59.2351782 L56.4791814,59.3970915 L55.9315624,59.9479096 C55.6792253,60.2017208 55.3619082,60.3794943 55.0151865,60.4612992 L41.6760672,63.6085073 C42.2706748,68.3615799 40.753006,73.3098656 37.1184921,76.8512061 C36.7086332,77.262666 36.2806999,77.6498536 35.8352926,78.0133091 C35.6074649,78.4558226 35.211576,78.8097989 34.7028335,78.9692748 C34.6195607,78.9953784 34.5358615,79.0154568 34.4521959,79.0297544 Z M31.7418317,76.1646216 C30.6874137,73.796546 29.2526086,73.0175544 27.1219583,73.062911 C26.3345852,73.0796723 25.5606578,73.1910157 24.243293,73.4478563 C21.6188376,73.9595345 21.0051016,74.0390205 19.8760453,73.7945528 C17.9120781,73.3693069 16.8849206,71.7730191 16.8849206,69.4081212 C16.8849206,67.4405131 16.6061972,67.221702 15.4249777,67.4535303 C14.9074766,67.555096 14.3087938,67.7738865 13.6853061,68.0762045 C13.3463707,68.2405483 13.023568,68.417939 12.7309234,68.5944466 C12.5610196,68.6969233 12.4448391,68.7722461 12.3950289,68.8064616 C12.3628862,68.8285409 12.3303165,68.8495001 12.2973651,68.8693478 C12.1609975,69.137498 12.0222319,69.3953095 11.877825,69.6494812 C11.3596904,70.547037 10.8068549,71.4025218 10.2238925,72.2164663 C9.12866994,73.7456391 7.96774069,75.0768177 6.7911342,76.2170647 C7.5075885,76.436632 8.26169152,76.6526906 9.04775792,76.860701 C13.4375566,78.0223377 17.8356101,78.6821697 21.8947017,78.5868041 C25.7775582,78.4955791 29.0967971,77.7143102 31.7418317,76.1646216 Z M34.8005866,73.7144067 C39.1421772,69.1100606 39.0243329,61.6358305 34.4255805,57.0102127 C29.6971824,52.2541917 22.1440875,52.2541917 17.4156893,57.0102127 C16.7521692,57.6776091 16.0307243,59.2196353 14.9412156,62.2058907 C14.8577262,62.4347285 14.7726184,62.6696373 14.6567415,62.9906598 C14.5316169,63.3375429 14.4574525,63.543112 14.3950668,63.7156802 C14.4948973,63.692282 14.5945704,63.6707855 14.69407,63.6512576 C18.1904298,62.9650556 20.718254,64.9495172 20.718254,69.4081212 C20.718254,69.7068646 20.7415009,69.9075101 20.7668763,70.0228979 C21.1450398,70.0769334 21.7388642,69.991356 23.5170392,69.6446732 C25.0347336,69.3487752 25.9779924,69.2130705 27.0412163,69.1904369 C30.4120338,69.1186801 33.0532753,70.5074421 34.8005866,73.7144067 Z M36.4437364,36.5050812 L54.9159004,55.1927484 L85.210323,16.9713975 L85.25392,16.9183563 C87.8968454,13.8169304 87.7209053,9.30424957 84.8065329,6.518546 C82.0595525,3.755518 77.5048773,3.57585984 74.3890258,6.11287088 L36.4437364,36.5050812 Z M51.5762318,57.2951551 L34.4172609,39.9360011 L31.865538,50.459183 C33.952006,51.240827 35.9124453,52.48966 37.4950544,54.0815146 C39.0826944,55.6784295 40.3276675,57.6583297 41.1051006,59.7656952 L51.5762318,57.2951551 Z" id="Combined-Shape" fill="url(#linearGradient-1)" fill-rule="nonzero"></path>
        </g>
    </g>
</svg>