<?xml version="1.0" encoding="UTF-8"?>
<svg width="100px" height="100px" viewBox="0 0 100 100" version="1.1" xmlns="http://www.w3.org/2000/svg" xmlns:xlink="http://www.w3.org/1999/xlink">
    <!-- Generator: Sketch 52.2 (67145) - http://www.bohemiancoding.com/sketch -->
    <title>feature-nutrition</title>
    <desc>Created with Sketch.</desc>
    <defs>
        <linearGradient x1="66.8104845%" y1="-100.167206%" x2="66.8104845%" y2="100%" id="linearGradient-1">
            <stop stop-color="#931FFF" offset="0%"></stop>
            <stop stop-color="#2D0DAE" offset="100%"></stop>
        </linearGradient>
        <linearGradient x1="66.8104845%" y1="0%" x2="66.8104845%" y2="159.306423%" id="linearGradient-2">
            <stop stop-color="#931FFF" offset="0%"></stop>
            <stop stop-color="#2D0DAE" offset="100%"></stop>
        </linearGradient>
    </defs>
    <g id="feature-nutrition" stroke="none" stroke-width="1" fill="none" fill-rule="evenodd" stroke-linecap="round" stroke-linejoin="round">
        <g id="Group" transform="translate(8.000000, 9.000000)" stroke-width="3.67499983">
            <path d="M13.838125,47.773913 C13.838125,47.773913 28.905625,62.3913043 29.8025,79.6826087 C29.8025,80.7521739 30.699375,81.4652174 31.59625,81.4652174 L47.74,81.4652174 C48.4575,81.4652174 49.175,81.1086957 49.354375,80.3956522 C50.96875,76.8304348 55.453125,56.1521739 71.4175,52.0521739 L62.8138916,45.2733195 L44.9874756,59.9230769 L48.79,46.4470771 L38.3424316,46.4470771 L33.9394043,58.5152731 L26.0751709,47.6916388 L20.4227051,41 L13.838125,47.773913 Z" id="Path" stroke="url(#linearGradient-1)" fill="#E4C8FF"></path>
            <path d="M73.57,27.8086957 C73.57,27.273913 73.749375,26.7391304 73.749375,26.2043478 C73.749375,18.1826087 67.1125,11.5869565 59.040625,11.5869565 C58.14375,11.5869565 57.246875,11.7652174 56.35,11.7652174 C53.83875,5.34782609 47.560625,0.713043478 40.20625,0.713043478 C32.851875,0.713043478 26.57375,5.34782609 24.0625,11.7652174 C23.345,11.5869565 22.448125,11.5869565 21.730625,11.5869565 C14.914375,11.5869565 9.35375,17.1130435 9.35375,23.8869565 C9.35375,24.2434783 9.35375,24.4217391 9.35375,24.6 C4.151875,25.8478261 0.385,30.4826087 0.385,36.0086957 C0.385,42.6043478 5.76625,47.773913 12.22375,47.773913 C15.990625,47.773913 19.39875,45.9913043 21.55125,43.1391304 C23.165625,47.5956522 27.29125,50.9826087 32.493125,50.9826087 C36.798125,50.9826087 40.565,48.6652174 42.538125,45.2782609 C44.51125,48.4869565 48.09875,50.626087 52.224375,50.626087 C55.99125,50.626087 59.399375,48.8434783 61.3725,45.9913043 C63.525,49.5565217 67.47125,51.873913 71.77625,51.873913 C78.5925,51.873913 83.97375,46.3478261 83.97375,39.7521739 C83.794375,33.6913043 79.31,28.7 73.57,27.8086957 Z" id="Path" stroke="url(#linearGradient-2)" fill="#FFFFFF"></path>
            <path d="M24.0625,27.4521739 C24.0625,27.4521739 31.416875,19.2521739 39.48875,24.9565217 C39.48875,24.9565217 50.61,18.8956522 54.55625,28.7" id="Path" stroke="#761AE8"></path>
        </g>
    </g>
</svg>