<?xml version="1.0" encoding="UTF-8"?>
<svg width="100px" height="100px" viewBox="0 0 100 100" version="1.1" xmlns="http://www.w3.org/2000/svg" xmlns:xlink="http://www.w3.org/1999/xlink">
    <!-- Generator: Sketch 52.2 (67145) - http://www.bohemiancoding.com/sketch -->
    <title>feature-tracking</title>
    <desc>Created with Sketch.</desc>
    <defs>
        <linearGradient x1="66.8104845%" y1="-224.538421%" x2="66.8104845%" y2="100%" id="linearGradient-1">
            <stop stop-color="#931FFF" offset="0%"></stop>
            <stop stop-color="#2D0DAE" offset="100%"></stop>
        </linearGradient>
        <linearGradient x1="66.8104845%" y1="0%" x2="66.8104845%" y2="100%" id="linearGradient-2">
            <stop stop-color="#931FFF" offset="0%"></stop>
            <stop stop-color="#2D0DAE" offset="100%"></stop>
        </linearGradient>
        <linearGradient x1="66.8104845%" y1="-131.756862%" x2="66.8104845%" y2="254.307352%" id="linearGradient-3">
            <stop stop-color="#931FFF" offset="0%"></stop>
            <stop stop-color="#2D0DAE" offset="100%"></stop>
        </linearGradient>
        <linearGradient x1="66.8104845%" y1="-281.26494%" x2="66.8104845%" y2="598.007832%" id="linearGradient-4">
            <stop stop-color="#931FFF" offset="0%"></stop>
            <stop stop-color="#2D0DAE" offset="100%"></stop>
        </linearGradient>
        <linearGradient x1="66.8104845%" y1="-56.4763214%" x2="66.8104845%" y2="311.649156%" id="linearGradient-5">
            <stop stop-color="#931FFF" offset="0%"></stop>
            <stop stop-color="#2D0DAE" offset="100%"></stop>
        </linearGradient>
    </defs>
    <g id="feature-tracking" stroke="none" stroke-width="1" fill="none" fill-rule="evenodd">
        <path d="M6,86.83 C4.98931888,86.83 4.16999996,86.0106811 4.16999996,85 C4.16999996,83.9893189 4.98931888,83.17 6,83.17 L94,83.17 C95.0106811,83.17 95.83,83.9893189 95.83,85 C95.83,86.0106811 95.0106811,86.83 94,86.83 L6,86.83 Z" id="Path" fill="#300DB0" fill-rule="nonzero"></path>
        <path d="M15.6816279,66.4594595 C15.6816279,65.4487783 16.5009468,64.6294594 17.5116279,64.6294594 C18.522309,64.6294594 19.3416279,65.4487783 19.3416279,66.4594595 L19.3416279,83 C19.3416279,84.0106811 18.522309,84.83 17.5116279,84.83 C16.5009468,84.83 15.6816279,84.0106811 15.6816279,83 L15.6816279,66.4594595 Z" id="Path" fill="url(#linearGradient-1)" fill-rule="nonzero"></path>
        <path d="M37.7281395,42.5675676 C37.7281395,41.5568865 38.5474584,40.7375675 39.5581395,40.7375675 C40.5688207,40.7375675 41.3881396,41.5568865 41.3881396,42.5675676 L41.3881396,83 C41.3881396,84.0106811 40.5688207,84.83 39.5581395,84.83 C38.5474584,84.83 37.7281395,84.0106811 37.7281395,83 L37.7281395,42.5675676 Z" id="Path" fill="url(#linearGradient-2)" fill-rule="nonzero"></path>
        <path d="M61.6118604,51.7567568 C61.6118604,50.7460756 62.4311793,49.9267567 63.4418605,49.9267567 C64.4525416,49.9267567 65.2718605,50.7460756 65.2718605,51.7567568 L65.2718605,83 C65.2718605,84.0106811 64.4525416,84.83 63.4418605,84.83 C62.4311793,84.83 61.6118604,84.0106811 61.6118604,83 L61.6118604,51.7567568 Z" id="Path" fill="url(#linearGradient-2)" fill-rule="nonzero"></path>
        <path d="M81.8211627,27.8648649 C81.8211627,26.8541837 82.6404817,26.0348648 83.6511628,26.0348648 C84.6618439,26.0348648 85.4811628,26.8541837 85.4811628,27.8648649 L85.4811628,83 C85.4811628,84.0106811 84.6618439,84.83 83.6511628,84.83 C82.6404817,84.83 81.8211627,84.0106811 81.8211627,83 L81.8211627,27.8648649 Z" id="Path" fill="url(#linearGradient-2)" fill-rule="nonzero"></path>
        <path d="M22.9114825,56.5780348 C22.2340039,57.3280342 21.0768044,57.386824 20.3268049,56.7093454 C19.5768055,56.0318669 19.5180157,54.8746674 20.1954943,54.1246679 L33.9745641,38.8706139 C34.6520426,38.1206145 35.8092421,38.0618247 36.5592416,38.7393032 C37.309241,39.4167818 37.3680308,40.5739813 36.6905522,41.3239807 L22.9114825,56.5780348 Z" id="Path" fill="url(#linearGradient-3)" fill-rule="nonzero"></path>
        <path d="M43.8731364,39.4204956 C42.9274109,39.0640134 42.4497349,38.0083654 42.8062172,37.0626399 C43.1626994,36.1169144 44.2183474,35.6392384 45.1640729,35.9957206 L57.840817,40.774099 C58.7865425,41.1305812 59.2642186,42.1862292 58.9077363,43.1319547 C58.5512541,44.0776802 57.4956061,44.5553562 56.5498806,44.198874 L43.8731364,39.4204956 Z" id="Path" fill="url(#linearGradient-4)" fill-rule="nonzero"></path>
        <path d="M77.3816054,25.6225873 C77.9661954,24.7981294 79.1084544,24.603678 79.9329123,25.1882679 C80.7573703,25.7728579 80.9518217,26.9151169 80.3672318,27.7395748 L69.160255,43.5449802 C68.5756651,44.3694382 67.4334061,44.5638896 66.6089481,43.9792997 C65.7844902,43.3947097 65.5900387,42.2524507 66.1746287,41.4279928 L77.3816054,25.6225873 Z" id="Path" fill="url(#linearGradient-5)" fill-rule="nonzero"></path>
        <g id="Group" transform="translate(12.000000, 16.000000)" fill="#E4C8FF" stroke-linecap="round" stroke-linejoin="round" stroke-width="3.66000009">
            <ellipse id="Oval" stroke="#6917DE" cx="5.87906977" cy="43.7621622" rx="5.69534884" ry="5.6972973"></ellipse>
            <ellipse id="Oval" stroke="#761AE8" cx="27.1906977" cy="20.0540541" rx="5.69534884" ry="5.6972973"></ellipse>
            <ellipse id="Oval" stroke="#7119E4" cx="50.8906977" cy="29.6108108" rx="5.69534884" ry="5.6972973"></ellipse>
            <ellipse id="Oval" stroke="#8D1EFA" cx="71.8348837" cy="5.6972973" rx="5.69534884" ry="5.6972973"></ellipse>
        </g>
    </g>
</svg>