<?xml version="1.0" encoding="UTF-8"?>
<svg width="100px" height="100px" viewBox="0 0 100 100" version="1.1" xmlns="http://www.w3.org/2000/svg" xmlns:xlink="http://www.w3.org/1999/xlink">
    <!-- Generator: Sketch 52.2 (67145) - http://www.bohemiancoding.com/sketch -->
    <title>feature-emails</title>
    <desc>Created with Sketch.</desc>
    <defs>
        <linearGradient x1="66.8104845%" y1="0%" x2="66.8104845%" y2="100%" id="linearGradient-1">
            <stop stop-color="#931FFF" offset="0%"></stop>
            <stop stop-color="#2D0DAE" offset="100%"></stop>
        </linearGradient>
        <linearGradient x1="64.8352944%" y1="-110.545565%" x2="66.8104845%" y2="229.585875%" id="linearGradient-2">
            <stop stop-color="#931FFF" offset="0%"></stop>
            <stop stop-color="#2D0DAE" offset="100%"></stop>
        </linearGradient>
        <linearGradient x1="66.8104845%" y1="-97.9980171%" x2="66.8104845%" y2="210.383448%" id="linearGradient-3">
            <stop stop-color="#931FFF" offset="0%"></stop>
            <stop stop-color="#2D0DAE" offset="100%"></stop>
        </linearGradient>
    </defs>
    <g id="feature-emails" stroke="none" stroke-width="1" fill="none" fill-rule="evenodd">
        <g id="Group-2" transform="translate(6.000000, 9.000000)">
            <rect id="Rectangle" fill="#E4C8FF" x="30.0895522" y="12.972973" width="40.8358209" height="51.8918919"></rect>
            <g id="Group" transform="translate(29.659701, 0.000000)">
                <path d="M0.343880597,25.3537015 L0.343880597,3.65217391 C0.343880597,1.73913043 1.89134328,0.173913043 3.78268657,0.173913043 L37.8268657,0.173913043 C39.718209,0.173913043 41.2656716,1.73913043 41.2656716,3.65217391 L41.2656716,76.5217391 C41.2656716,78.4347826 39.718209,80 37.8268657,80 L3.78268657,80 C1.89134328,80 0.343880597,78.4347826 0.343880597,76.5217391 L0.343880597,50.4347826" id="Path" stroke="url(#linearGradient-1)" stroke-width="3.45600019" stroke-linecap="round" stroke-linejoin="round"></path>
                <path d="M1.71940299,13.2549941 L39.5462687,13.2549941" id="Path" stroke="#831CF3" stroke-width="3.45600019" stroke-linecap="round" stroke-linejoin="round"></path>
                <path d="M1.71940299,64.3478261 L39.5462687,64.3478261" id="Path" stroke="#4111BE" stroke-width="3.45600019" stroke-linecap="round" stroke-linejoin="round"></path>
                <path d="M16.119403,6.48648649 L24.7164179,6.48648649" id="Path" stroke="#8A1DF8" stroke-width="3.45600019" stroke-linecap="round" stroke-linejoin="round"></path>
                <ellipse id="Oval" fill="#390FB7" cx="20.8047761" cy="71.9623972" rx="2.96597015" ry="2.99412456"></ellipse>
            </g>
            <g id="Group" transform="translate(0.000000, 25.005875)">
                <path d="M53.0435821,24.733255 L19.5152239,24.733255 C19.1713433,24.733255 18.6555224,24.3854289 18.6555224,23.8636898 L18.6555224,2.12455934 C18.6555224,1.77673325 18.999403,1.25499412 19.5152239,1.25499412 L53.0435821,1.25499412 C53.3874627,1.25499412 53.9032836,1.60282021 53.9032836,2.12455934 L53.9032836,24.0376028 C53.9032836,24.3854289 53.559403,24.733255 53.0435821,24.733255 Z" id="Path" stroke="url(#linearGradient-2)" stroke-width="3.45600019" fill="#FFFFFF" stroke-linecap="round" stroke-linejoin="round"></path>
                <path d="M2.14925373,21.9412456 C1.19965367,21.9412456 0.429850721,21.1668192 0.429850721,20.2115159 C0.429850721,19.2562125 1.19965367,18.4817861 2.14925373,18.4817861 L12.4656716,18.4817861 C13.4152717,18.4817861 14.1850747,19.2562125 14.1850747,20.2115159 C14.1850747,21.1668192 13.4152717,21.9412456 12.4656716,21.9412456 L2.14925373,21.9412456 Z M5.5880597,13.2455934 C4.63845964,13.2455934 3.86865669,12.4711671 3.86865669,11.5158637 C3.86865669,10.5605603 4.63845964,9.78613393 5.5880597,9.78613393 L12.4656716,9.78613393 C13.4152717,9.78613393 14.1850747,10.5605603 14.1850747,11.5158637 C14.1850747,12.4711671 13.4152717,13.2455934 12.4656716,13.2455934 L5.5880597,13.2455934 Z M2.14925373,4.54994127 C1.19965367,4.54994127 0.429850721,3.77551488 0.429850721,2.82021152 C0.429850721,1.86490815 1.19965367,1.09048176 2.14925373,1.09048176 L12.4656716,1.09048176 C13.4152717,1.09048176 14.1850747,1.86490815 14.1850747,2.82021152 C14.1850747,3.77551488 13.4152717,4.54994127 12.4656716,4.54994127 L2.14925373,4.54994127 Z M29.6174903,13.1724887 L17.7432419,3.46704486 C17.0062341,2.86464986 16.8941934,1.77526099 17.492992,1.03382671 C18.0917906,0.292392435 19.1746757,0.17967883 19.9116835,0.782073828 L36.3653731,14.2305344 L39.3175615,11.8175565 C39.377453,11.7610962 39.4404938,11.7097151 39.5061175,11.6634398 L52.8190628,0.782073828 C53.5560706,0.17967883 54.6389556,0.292392435 55.2377543,1.03382671 C55.8365529,1.77526099 55.7245122,2.86464986 54.9875044,3.46704486 L43.1305213,13.1583768 L54.3729776,23.4541453 C55.0751929,24.0972295 55.1262405,25.1912291 54.4869956,25.8976619 C53.8477507,26.6040947 52.7602824,26.6554489 52.0580672,26.0123647 L40.4312681,15.3646176 L37.9654148,17.3800883 C37.8690249,17.4588728 37.7644337,17.5269194 37.6534722,17.5830367 C36.8237106,18.0026776 35.9070357,18.0026776 35.0772741,17.5830367 C34.9663125,17.5269194 34.8617214,17.4588728 34.7653314,17.3800883 L32.3173366,15.3792142 L20.6708386,26.0140478 C19.9676993,26.6561093 18.880306,26.6031726 18.2420776,25.8958103 C17.6038493,25.188448 17.6564699,24.0945238 18.3596092,23.4524622 L29.6174903,13.1724887 Z" id="Combined-Shape" fill="url(#linearGradient-3)" fill-rule="nonzero"></path>
            </g>
        </g>
    </g>
</svg>